HIERARCHY
ROOT Hips
{
	OFFSET 0.000000 100.481300 0.000000
	CHANNELS 6 Xposition Yposition Zposition Xrotation Yrotation Zrotation
	JOINT Spine
	{
		OFFSET -0.279200 12.230698 -2.892100
		CHANNELS 3 Xrotation Yrotation Zrotation
		JOINT Spine1
		{
			OFFSET -0.325700 14.269203 -3.374200
			CHANNELS 3 Xrotation Yrotation Zrotation
			JOINT Spine2
			{
				OFFSET -0.372300 16.307602 -0.352600
				CHANNELS 3 Xrotation Yrotation Zrotation
				JOINT Neck
				{
					OFFSET -0.418800 17.814194 8.416900
					CHANNELS 3 Xrotation Yrotation Zrotation
					JOINT Head
					{
						OFFSET 0.000000 7.031097 3.806800
						CHANNELS 3 Xrotation Yrotation Zrotation
						JOINT HeadTop_End
						{
							OFFSET 0.000000 24.646606 12.978600
							CHANNELS 3 Xrotation Yrotation Zrotation
							End Site
							{
								OFFSET 0.000000 27.854965 0.000000
							}
						}
					}
				}
				JOINT LeftShoulder
				{
					OFFSET 16.952999 14.495407 -7.737500
					CHANNELS 3 Xrotation Yrotation Zrotation
					JOINT LeftArm
					{
						OFFSET 9.308998 -2.777710 0.208600
						CHANNELS 3 Xrotation Yrotation Zrotation
						JOINT LeftForeArm
						{
							OFFSET 29.972298 0.000000 0.000000
							CHANNELS 3 Xrotation Yrotation Zrotation
							JOINT LeftHand
							{
								OFFSET 26.026505 0.000000 0.000000
								CHANNELS 3 Xrotation Yrotation Zrotation
								JOINT LeftHandThumb1
								{
									OFFSET 12.240501 -7.147949 9.207150
									CHANNELS 3 Xrotation Yrotation Zrotation
									JOINT LeftHandThumb2
									{
										OFFSET 4.138618 -2.389435 2.389433
										CHANNELS 3 Xrotation Yrotation Zrotation
										JOINT LeftHandThumb3
										{
											OFFSET 2.726913 -1.574387 1.574386
											CHANNELS 3 Xrotation Yrotation Zrotation
											JOINT LeftHandThumb4
											{
												OFFSET 3.941010 -2.275345 2.275342
												CHANNELS 3 Xrotation Yrotation Zrotation
												End Site
												{
													OFFSET -0.005798 5.087799 0.009903
												}
											}
										}
									}
								}
								JOINT LeftHandIndex1
								{
									OFFSET 24.424698 -1.985611 5.953459
									CHANNELS 3 Xrotation Yrotation Zrotation
									JOINT LeftHandIndex2
									{
										OFFSET 6.426697 0.000000 0.000000
										CHANNELS 3 Xrotation Yrotation Zrotation
										JOINT LeftHandIndex3
										{
											OFFSET 5.337898 0.000000 0.000000
											CHANNELS 3 Xrotation Yrotation Zrotation
											JOINT LeftHandIndex4
											{
												OFFSET 4.409401 0.000000 0.000000
												CHANNELS 3 Xrotation Yrotation Zrotation
												End Site
												{
													OFFSET 0.000000 4.409363 0.014373
												}
											}
										}
									}
								}
								JOINT LeftHandMiddle1
								{
									OFFSET 23.810104 0.000000 0.000000
									CHANNELS 3 Xrotation Yrotation Zrotation
									JOINT LeftHandMiddle2
									{
										OFFSET 7.176498 0.000000 0.000000
										CHANNELS 3 Xrotation Yrotation Zrotation
										JOINT LeftHandMiddle3
										{
											OFFSET 6.774902 0.000000 0.000000
											CHANNELS 3 Xrotation Yrotation Zrotation
											JOINT LeftHandMiddle4
											{
												OFFSET 5.403328 0.000000 0.000000
												CHANNELS 3 Xrotation Yrotation Zrotation
												End Site
												{
													OFFSET -0.027702 5.403244 0.017414
												}
											}
										}
									}
								}
								JOINT LeftHandRing1
								{
									OFFSET 22.908401 -0.839279 -6.020567
									CHANNELS 3 Xrotation Yrotation Zrotation
									JOINT LeftHandRing2
									{
										OFFSET 6.337502 0.000000 0.000000
										CHANNELS 3 Xrotation Yrotation Zrotation
										JOINT LeftHandRing3
										{
											OFFSET 5.779297 0.000000 0.000000
											CHANNELS 3 Xrotation Yrotation Zrotation
											JOINT LeftHandRing4
											{
												OFFSET 4.965698 0.000000 0.000000
												CHANNELS 3 Xrotation Yrotation Zrotation
												End Site
												{
													OFFSET 0.000000 4.965668 0.016186
												}
											}
										}
									}
								}
								JOINT LeftHandPinky1
								{
									OFFSET 20.037003 -1.530319 -10.950146
									CHANNELS 3 Xrotation Yrotation Zrotation
									JOINT LeftHandPinky2
									{
										OFFSET 5.254700 0.000000 0.000000
										CHANNELS 3 Xrotation Yrotation Zrotation
										JOINT LeftHandPinky3
										{
											OFFSET 4.810204 0.000000 0.000000
											CHANNELS 3 Xrotation Yrotation Zrotation
											JOINT LeftHandPinky4
											{
												OFFSET 3.647202 0.000000 0.000000
												CHANNELS 3 Xrotation Yrotation Zrotation
												End Site
												{
													OFFSET 0.000000 3.647186 0.011889
												}
											}
										}
									}
								}
							}
						}
					}
				}
				JOINT RightShoulder
				{
					OFFSET -15.141001 14.495407 -7.737500
					CHANNELS 3 Xrotation Yrotation Zrotation
					JOINT RightArm
					{
						OFFSET -9.308998 -2.777710 0.208500
						CHANNELS 3 Xrotation Yrotation Zrotation
						JOINT RightForeArm
						{
							OFFSET -29.972300 0.000000 0.000000
							CHANNELS 3 Xrotation Yrotation Zrotation
							JOINT RightHand
							{
								OFFSET -26.026505 0.000000 0.000000
								CHANNELS 3 Xrotation Yrotation Zrotation
								JOINT RightHandThumb1
								{
									OFFSET -12.240601 -7.148026 9.207092
									CHANNELS 3 Xrotation Yrotation Zrotation
									JOINT RightHandThumb2
									{
										OFFSET -4.138618 -2.389435 2.389433
										CHANNELS 3 Xrotation Yrotation Zrotation
										JOINT RightHandThumb3
										{
											OFFSET -2.726974 -1.574417 1.574421
											CHANNELS 3 Xrotation Yrotation Zrotation
											JOINT RightHandThumb4
											{
												OFFSET -3.941010 -2.275345 2.275343
												CHANNELS 3 Xrotation Yrotation Zrotation
												End Site
												{
													OFFSET 0.005814 5.087799 0.009927
												}
											}
										}
									}
								}
								JOINT RightHandIndex1
								{
									OFFSET -24.424698 -1.985657 5.953444
									CHANNELS 3 Xrotation Yrotation Zrotation
									JOINT RightHandIndex2
									{
										OFFSET -6.426697 0.000000 0.000000
										CHANNELS 3 Xrotation Yrotation Zrotation
										JOINT RightHandIndex3
										{
											OFFSET -5.337898 0.000000 0.000000
											CHANNELS 3 Xrotation Yrotation Zrotation
											JOINT RightHandIndex4
											{
												OFFSET -4.409401 0.000000 0.000000
												CHANNELS 3 Xrotation Yrotation Zrotation
												End Site
												{
													OFFSET 0.000000 4.409363 0.014408
												}
											}
										}
									}
								}
								JOINT RightHandMiddle1
								{
									OFFSET -23.810097 0.000000 0.000000
									CHANNELS 3 Xrotation Yrotation Zrotation
									JOINT RightHandMiddle2
									{
										OFFSET -7.176498 0.000000 0.000000
										CHANNELS 3 Xrotation Yrotation Zrotation
										JOINT RightHandMiddle3
										{
											OFFSET -6.774902 0.000000 0.000000
											CHANNELS 3 Xrotation Yrotation Zrotation
											JOINT RightHandMiddle4
											{
												OFFSET -5.403328 0.000000 0.000000
												CHANNELS 3 Xrotation Yrotation Zrotation
												End Site
												{
													OFFSET 0.027702 5.403244 0.017457
												}
											}
										}
									}
								}
								JOINT RightHandRing1
								{
									OFFSET -22.908302 -0.839325 -6.020576
									CHANNELS 3 Xrotation Yrotation Zrotation
									JOINT RightHandRing2
									{
										OFFSET -6.337502 0.000000 0.000000
										CHANNELS 3 Xrotation Yrotation Zrotation
										JOINT RightHandRing3
										{
											OFFSET -5.779297 0.000000 0.000000
											CHANNELS 3 Xrotation Yrotation Zrotation
											JOINT RightHandRing4
											{
												OFFSET -4.965698 0.000000 0.000000
												CHANNELS 3 Xrotation Yrotation Zrotation
												End Site
												{
													OFFSET 0.000000 4.965668 0.016226
												}
											}
										}
									}
								}
								JOINT RightHandPinky1
								{
									OFFSET -20.037003 -1.530334 -10.950259
									CHANNELS 3 Xrotation Yrotation Zrotation
									JOINT RightHandPinky2
									{
										OFFSET -5.254700 0.000000 0.000000
										CHANNELS 3 Xrotation Yrotation Zrotation
										JOINT RightHandPinky3
										{
											OFFSET -4.810204 0.000000 0.000000
											CHANNELS 3 Xrotation Yrotation Zrotation
											JOINT RightHandPinky4
											{
												OFFSET -3.647202 0.000000 0.000000
												CHANNELS 3 Xrotation Yrotation Zrotation
												End Site
												{
													OFFSET 0.000000 3.647186 0.011917
												}
											}
										}
									}
								}
							}
						}
					}
				}
			}
		}
	}
	JOINT LeftUpLeg
	{
		OFFSET 15.427100 -6.655098 0.678600
		CHANNELS 3 Xrotation Yrotation Zrotation
		JOINT LeftLeg
		{
			OFFSET 4.081073 -39.591068 13.024000
			CHANNELS 3 Xrotation Yrotation Zrotation
			JOINT LeftFoot
			{
				OFFSET -4.081074 -37.707932 -15.979700
				CHANNELS 3 Xrotation Yrotation Zrotation
				JOINT LeftToeBase
				{
					OFFSET 5.346399 -15.068900 20.645000
					CHANNELS 3 Xrotation Yrotation Zrotation
					JOINT LeftToe_End
					{
						OFFSET 2.754700 0.931300 11.300900
						CHANNELS 3 Xrotation Yrotation Zrotation
						End Site
						{
							OFFSET 0.000000 11.669021 0.000000
						}
					}
				}
			}
		}
	}
	JOINT RightUpLeg
	{
		OFFSET -15.569500 -6.655098 0.678600
		CHANNELS 3 Xrotation Yrotation Zrotation
		JOINT RightLeg
		{
			OFFSET -4.081825 -39.591045 13.023800
			CHANNELS 3 Xrotation Yrotation Zrotation
			JOINT RightFoot
			{
				OFFSET 4.081824 -37.707954 -15.979600
				CHANNELS 3 Xrotation Yrotation Zrotation
				JOINT RightToeBase
				{
					OFFSET -5.346400 -15.068900 20.645000
					CHANNELS 3 Xrotation Yrotation Zrotation
					JOINT RightToe_End
					{
						OFFSET -2.754700 0.931300 11.300900
						CHANNELS 3 Xrotation Yrotation Zrotation
						End Site
						{
							OFFSET 0.000000 11.669021 0.000000
						}
					}
				}
			}
		}
	}
}
MOTION
Frames: 5
Frame Time: 0.033333
-6.446252 7.766663 18.700294 -92.528866 -27.113851 -1.240404 2.880138 20.421731 4.004005 3.042960 5.082291 2.965780 1.417947 5.036620 4.440446 -28.429230 -12.933844 -0.594355 40.385689 -62.801219 13.630178 0.000002 -0.000001 -0.000000 1.218273 -7.248236 1.104256 90.636173 -13.797186 -13.143657 -0.000014 -67.989533 -0.000019 -12.049956 25.674162 30.576001 -1.540043 3.690181 6.142359 -10.100708 5.538322 18.615831 -7.834818 1.384397 10.713588 -0.000002 -0.000001 0.000002 -0.000003 0.000007 0.000013 -0.000004 -0.000005 -0.000040 -0.000001 0.000002 -0.000021 -0.000001 -0.000000 -0.000000 0.000001 -0.001921 0.015992 -0.000003 0.001923 -0.016019 0.000005 0.000015 -0.000020 -0.000001 0.000004 0.000003 -0.000003 0.000007 0.000013 -0.000005 -0.000006 -0.000039 -0.000002 0.000003 -0.000020 -0.000001 -0.000001 -0.000001 -0.018094 4.054256 0.511074 -0.018093 -4.054259 -0.511106 -0.000001 -0.000001 -0.000021 -0.000000 -0.000002 -0.000001 1.193150 5.742130 -14.213873 11.802137 -28.711489 60.234981 -0.000005 32.554416 -0.000006 91.504796 -3.551827 22.907884 -1.849249 -3.581805 -6.586140 4.637205 -8.634127 -0.225405 -1.273758 0.137292 -2.094873 0.000000 -0.000004 -0.000000 0.000001 0.000003 -0.000017 0.000001 -0.000010 0.000024 0.000001 0.000002 0.000011 0.000000 -0.000001 -0.000000 0.000001 0.000004 -0.000016 0.000000 -0.000004 0.000024 0.000003 0.000003 0.000008 -0.000000 -0.000003 0.000001 0.000002 -0.000006 -0.000019 0.000000 0.000004 0.000027 0.000002 0.000002 0.000011 0.000001 0.000003 0.000001 0.000001 0.000003 -0.000017 -0.000000 -0.000006 0.000023 0.000002 0.000000 0.000011 -0.000000 0.000000 -0.000000 -45.161576 -35.444949 -5.123805 98.497448 -20.248596 -12.060482 36.617484 3.962733 -3.856429 -0.957272 0.026088 -1.687734 -0.000000 -0.000000 0.000002 -60.433206 -20.859679 -25.774552 81.115450 -20.092156 -8.529964 26.858288 7.593320 27.067536 0.000003 -0.000010 0.000000 -0.000004 -0.000001 0.000000 
-6.442453 7.764282 18.706223 -92.534269 -27.093006 -1.240354 3.031032 20.382900 3.971484 3.135624 4.976632 2.943322 1.515308 4.929040 4.427938 -29.035025 -12.201773 -0.357212 41.006540 -63.297316 13.946854 0.000003 -0.000000 0.000000 1.234931 -7.235860 1.052066 90.104976 -13.753800 -13.794944 -0.000016 -67.918199 -0.000015 -11.588629 25.737152 30.430289 -1.540040 3.690182 6.142355 -8.933615 5.915179 17.111118 -7.216952 1.409441 9.996635 0.000003 -0.000002 0.000001 0.000000 -0.000003 0.000010 -0.000002 0.000022 -0.000039 0.000000 -0.000007 -0.000020 -0.000001 0.000001 0.000000 0.000002 -0.001922 0.015994 0.000003 0.001944 -0.016022 -0.000000 -0.000005 -0.000021 0.000000 -0.000003 0.000001 0.000000 -0.000003 0.000011 -0.000003 0.000019 -0.000039 0.000002 0.000002 -0.000022 -0.000002 0.000002 0.000001 -0.018093 4.054261 0.511074 -0.018087 -4.054250 -0.511108 -0.000001 -0.000003 -0.000019 0.000001 0.000002 0.000000 1.186281 5.701438 -14.246230 11.346328 -28.540012 60.110938 0.000033 32.295945 -0.000026 91.526919 -3.387357 22.583807 -1.849248 -3.581801 -6.586138 4.637203 -8.634105 -0.225405 -1.273760 0.137310 -2.094871 0.000000 -0.000004 -0.000000 0.000001 -0.000004 -0.000021 -0.000001 0.000016 0.000031 0.000000 -0.000002 0.000011 -0.000001 -0.000003 -0.000000 0.000001 -0.000004 -0.000021 -0.000002 0.000015 0.000033 -0.000000 -0.000006 0.000006 0.000001 -0.000001 0.000002 0.000002 -0.000008 -0.000024 -0.000003 0.000023 0.000034 0.000001 -0.000001 0.000010 0.000000 0.000001 -0.000000 0.000001 -0.000004 -0.000022 -0.000002 0.000013 0.000031 0.000001 -0.000000 0.000010 0.000000 0.000001 -0.000000 -45.178512 -35.463906 -5.127259 98.488705 -20.242879 -12.053177 36.678775 3.954522 -3.906129 -1.031891 0.024893 -1.647348 -0.000000 -0.000000 -0.000002 -60.371400 -20.800720 -25.798014 81.132873 -20.008172 -8.450929 26.814561 7.658188 27.279419 -0.000020 0.000013 0.000033 0.000002 0.000000 0.000001 
-6.440144 7.762703 18.710938 -92.539856 -27.076723 -1.237688 3.248672 20.257197 3.920253 3.247718 4.694419 2.918473 1.625818 4.648256 4.419701 -29.758277 -11.352115 0.169086 41.281499 -63.640035 13.718461 0.000000 -0.000001 0.000000 1.253077 -7.220738 0.994226 89.196287 -13.711272 -15.346171 -0.000001 -67.734460 0.000005 -10.705408 25.651723 30.290301 -1.540038 3.690179 6.142352 -7.685160 6.280967 15.507103 -6.560514 1.434128 9.240376 -0.000002 -0.000001 0.000003 -0.000002 0.000002 0.000010 -0.000001 0.000003 -0.000036 -0.000001 -0.000005 -0.000018 -0.000001 -0.000002 -0.000002 -0.000002 -0.001928 0.015993 0.000003 0.001937 -0.016020 0.000001 -0.000005 -0.000019 -0.000001 0.000002 0.000002 -0.000002 0.000002 0.000010 -0.000001 0.000001 -0.000034 -0.000001 0.000000 -0.000021 -0.000000 0.000000 -0.000001 -0.018093 4.054256 0.511076 -0.018086 -4.054253 -0.511101 -0.000003 -0.000005 -0.000022 0.000000 -0.000001 -0.000000 1.176072 5.644309 -14.287165 10.541614 -28.054251 59.855564 0.000006 32.098747 -0.000008 91.750396 -3.231456 22.438360 -1.849250 -3.581790 -6.586141 4.637207 -8.634125 -0.225402 -1.273759 0.137319 -2.094868 0.000000 -0.000002 0.000000 0.000000 0.000004 -0.000018 -0.000001 -0.000006 0.000022 -0.000001 -0.000003 0.000014 -0.000001 0.000002 -0.000001 0.000001 0.000004 -0.000017 -0.000002 -0.000005 0.000020 -0.000000 -0.000006 0.000013 0.000001 -0.000001 -0.000001 0.000000 0.000004 -0.000018 -0.000001 -0.000002 0.000022 -0.000000 -0.000005 0.000014 -0.000001 0.000002 0.000000 0.000000 0.000004 -0.000018 -0.000003 -0.000007 0.000022 0.000000 -0.000003 0.000013 0.000000 0.000000 -0.000001 -45.187244 -35.467970 -5.127850 98.488787 -20.217182 -12.035153 36.730507 3.936525 -3.924280 -1.030242 0.024928 -1.649058 0.000001 0.000000 -0.000002 -60.299546 -20.739255 -25.810585 81.146834 -19.923766 -8.369640 26.730468 7.742601 27.510856 0.000006 0.000004 0.000000 -0.000001 0.000001 0.000001 
-6.436677 7.765953 18.708305 -92.551071 -27.070423 -1.231637 3.511827 20.072430 3.849598 3.375609 4.294084 2.892099 1.747505 4.251682 4.410800 -30.585461 -10.577169 0.909229 41.151425 -63.781276 12.922014 0.000001 0.000000 0.000000 1.272912 -7.204274 0.930345 88.007684 -13.618210 -17.545779 -0.000014 -67.448275 -0.000012 -9.423155 25.453909 30.108676 -1.540039 3.690181 6.142353 -6.378061 6.623419 13.833261 -5.877690 1.457740 8.459216 0.000000 0.000001 -0.000000 0.000003 -0.000003 0.000006 0.000001 -0.000008 -0.000040 0.000001 0.000008 -0.000016 -0.000000 0.000000 0.000001 0.000006 -0.001926 0.015988 -0.000003 0.001920 -0.016022 -0.000002 0.000009 -0.000014 -0.000000 -0.000001 0.000001 0.000003 -0.000003 0.000007 0.000001 -0.000009 -0.000039 0.000000 0.000004 -0.000015 -0.000001 0.000001 -0.000001 -0.018089 4.054250 0.511073 -0.018086 -4.054255 -0.511106 0.000002 0.000007 -0.000016 -0.000002 -0.000003 -0.000002 1.160457 5.565556 -14.329515 9.492171 -27.328138 59.534497 -0.000021 31.936008 0.000010 92.129382 -3.140751 22.397058 -1.849253 -3.581806 -6.586143 4.637202 -8.634125 -0.225402 -1.273757 0.137318 -2.094873 0.000000 -0.000003 -0.000001 -0.000000 0.000006 -0.000015 0.000000 -0.000006 0.000019 -0.000001 0.000002 0.000012 0.000000 0.000002 -0.000001 -0.000000 0.000006 -0.000015 0.000001 -0.000006 0.000019 -0.000001 0.000008 0.000012 -0.000000 -0.000002 -0.000001 0.000000 0.000008 -0.000015 -0.000000 -0.000007 0.000018 0.000000 0.000001 0.000010 0.000001 0.000001 0.000000 -0.000000 0.000006 -0.000015 0.000000 -0.000008 0.000019 0.000001 0.000003 0.000011 0.000001 -0.000001 -0.000001 -45.136673 -35.506049 -5.057771 98.457252 -20.249641 -12.054627 36.736070 3.912238 -4.040319 -1.010791 0.025492 -1.668545 -0.000000 -0.000000 -0.000003 -60.285620 -20.675900 -25.792287 81.127423 -19.907259 -8.324838 26.718788 7.881439 27.522773 -0.000005 -0.000009 -0.000024 -0.000000 0.000000 0.000000 
-6.418849 7.781036 18.704758 -92.573085 -27.065349 -1.209905 3.819788 19.845244 3.746716 3.520868 3.823715 2.860188 1.884249 3.787117 4.394252 -31.469830 -10.051159 1.792786 40.476319 -63.687081 11.499615 0.000001 0.000002 -0.000001 1.292696 -7.191368 0.866705 86.672690 -13.400959 -20.069104 0.000010 -67.038853 0.000011 -8.069302 24.984210 29.890366 -1.540037 3.690186 6.142355 -5.036109 6.932790 12.119950 -5.180730 1.479737 7.667180 -0.000002 0.000002 -0.000004 -0.000000 0.000001 0.000010 0.000002 0.000007 -0.000034 -0.000001 0.000003 -0.000018 -0.000001 -0.000001 0.000001 -0.000000 -0.001919 0.015989 0.000003 0.001942 -0.016016 0.000003 0.000016 -0.000018 -0.000001 -0.000004 -0.000000 -0.000000 0.000001 0.000010 0.000002 0.000005 -0.000034 -0.000001 -0.000001 -0.000020 -0.000001 0.000001 -0.000000 -0.018096 4.054259 0.511074 -0.018091 -4.054259 -0.511101 0.000001 -0.000001 -0.000020 0.000000 0.000003 -0.000001 1.135989 5.476973 -14.359817 8.308183 -26.473868 59.173023 0.000007 31.803615 -0.000009 92.554999 -2.938692 22.381184 -1.849252 -3.581793 -6.586140 4.637206 -8.634114 -0.225403 -1.273759 0.137302 -2.094873 -0.000000 -0.000002 -0.000000 -0.000001 -0.000001 -0.000015 0.000001 -0.000002 0.000019 -0.000000 -0.000008 0.000011 0.000000 0.000001 -0.000001 -0.000001 -0.000000 -0.000015 0.000000 -0.000001 0.000019 0.000001 -0.000018 0.000004 -0.000001 -0.000003 0.000001 -0.000000 0.000006 -0.000016 -0.000001 -0.000001 0.000031 0.000002 -0.000008 0.000007 -0.000000 0.000002 -0.000002 -0.000001 -0.000001 -0.000016 0.000002 -0.000003 0.000020 -0.000001 -0.000002 0.000010 0.000000 0.000001 0.000000 -44.941569 -35.601275 -4.840938 98.351978 -20.420235 -12.107047 36.638286 3.872147 -4.482444 -1.117573 0.024412 -1.633598 -0.000000 0.000000 0.000001 -60.293672 -20.570216 -25.755499 81.079072 -19.883374 -8.302309 26.743496 8.070038 27.503866 -0.000002 0.000012 -0.000009 -0.000001 -0.000000 0.000001 
